<svg xmlns="http://www.w3.org/2000/svg" width="357" height="352" viewBox="0 0 357 352" version="1.1">
	<path d="M 207.903 16.643 C 201.884 23.644, 193.280 42.065, 190.684 53.509 C 188.531 63.004, 187.466 74, 188.701 74 C 191.472 74, 203 57.805, 206.686 48.736 C 209.605 41.551, 211.359 27.589, 210.278 20.142 C 209.545 15.098, 209.407 14.894, 207.903 16.643 M 184.627 79.601 C 179.437 86.105, 176.587 93.798, 176.161 102.448 C 175.736 111.097, 176.657 116.474, 181.053 131 C 186.482 148.943, 188.313 160.937, 188.304 178.500 C 188.296 192.882, 188.026 195.409, 185.638 203.490 C 184.176 208.435, 181.220 215.522, 179.067 219.240 C 176.914 222.958, 175.473 226, 175.865 226 C 177.635 226, 184.516 216.165, 187.962 208.709 C 193.278 197.208, 196.071 185.614, 198.492 165 C 201.184 142.084, 200.547 134.689, 193.556 107.645 C 191.603 100.092, 189.711 90.091, 189.352 85.422 C 188.993 80.753, 188.407 76.751, 188.049 76.530 C 187.691 76.309, 186.151 77.691, 184.627 79.601 M 135.336 103 C 136.221 104.375, 139.487 109.291, 142.594 113.925 C 155.027 132.469, 160.007 146.226, 159.989 161.980 C 159.971 177.960, 157.391 184.166, 137.276 216.629 C 134.506 221.100, 129.638 229.650, 126.459 235.629 C 123.281 241.608, 119.722 248.300, 118.551 250.500 C 109.165 268.138, 99.685 295.215, 98.418 308 C 98.119 311.025, 97.666 314.524, 97.412 315.775 C 97.023 317.690, 97.705 318.390, 101.725 320.202 C 107.835 322.957, 124.230 323.189, 133.644 320.654 C 137.024 319.744, 140.203 319, 140.710 319 C 141.217 319, 142.648 320.808, 143.889 323.017 C 146.958 328.477, 154.830 336.045, 160.846 339.320 C 165.291 341.739, 166.312 341.924, 170.654 341.099 C 173.319 340.592, 178.875 339.675, 183 339.062 C 204.357 335.886, 227.897 331.109, 232.803 328.955 C 236.713 327.238, 237.002 326.872, 235.970 324.944 C 234.951 323.041, 228.728 319.741, 216.203 314.464 C 209.314 311.562, 203.464 305.394, 201.600 299.068 C 198.211 287.565, 200.167 277.112, 212.381 241.456 C 220.411 218.012, 222.337 207.340, 222.295 186.500 C 222.264 170.437, 221.858 166.661, 218.110 147.500 C 216.881 141.220, 210.446 119.943, 208.489 115.690 C 207.681 113.936, 207.227 113.400, 207.479 114.500 C 207.732 115.600, 208.821 120.325, 209.900 125 C 213.855 142.139, 215.295 155.662, 214.636 169.500 C 214.296 176.650, 213.335 184.975, 212.501 188 C 210.264 196.112, 202.879 210.572, 196.371 219.585 C 180.744 241.226, 177.416 246.833, 173.975 257.314 C 172.559 261.628, 172.003 266.042, 172.012 272.915 C 172.026 284.086, 173.411 290.026, 178.094 299 C 182.472 307.390, 182.647 307.910, 180.263 305.439 C 172.359 297.247, 161.412 277.669, 158.491 266.500 C 154.574 251.523, 155.471 238.607, 161.684 220.500 C 171.739 191.201, 173.164 186.347, 174.081 178.273 C 175.661 164.376, 173.582 153.975, 166.388 139.779 C 164.070 135.206, 160.453 129.442, 158.994 128 C 158.716 127.725, 157.158 125.700, 155.532 123.500 C 151.929 118.625, 133.074 99.487, 135.336 103" stroke="none" fill="#e00000" fill-rule="evenodd"/>
</svg>